# xmcd
#
# Track frame offsets:
#	150
#	14707
#	33632
#	55354
#	72083
#	86284
#	102947
#	116180
#	135852
#	156912
#	167809
#	189252
#	219085
#	248635
#	265316
#
# Disc length: 3687 seconds
#
# Revision: 1
# Processed by: cddbd v1.5.2PL0 Copyright (c) Steve Scherf et al.
# Submitted via: EZCDAudioConverter 2.1.7.1
#
DISCID=c90e650f
DTITLE=V/A - Come On Let's Go!
DYEAR=1900
DGENRE=MOJO
TTITLE0=Broadcast - Come On Let's Go
TTITLE1=Robert Wyatt - Free Will And Testament
TTITLE2=Midlake - Young Bride
TTITLE3=Baxter Dury - Isabel
TTITLE4=Joan As Police Woman - The Ride
TTITLE5=Diagrams - Night All Night
TTITLE6=Erland and The Carnival - Map Of An Englishman
TTITLE7=Declan O’Rourke - Sarah (Last Night In A Dream)
TTITLE8=Cow - Black Harvest
TTITLE9=Fleet Foxes - White Winter Hymnal
TTITLE10=Tame Impala - Alter Ego
TTITLE11=Joanna Newsom - Colleen
TTITLE12=Tim Burgess - A Case For Vinyl
TTITLE13=Paul Weller - River Man
TTITLE14=Amy Winehouse - Love Is A Losing Game [Live]
EXTD=
EXTT0=
EXTT1=
EXTT2=
EXTT3=
EXTT4=
EXTT5=
EXTT6=
EXTT7=
EXTT8=
EXTT9=
EXTT10=
EXTT11=
EXTT12=
EXTT13=
EXTT14=
PLAYORDER=
